<mxfile host="www.draw.io" modified="2024-02-06T16:17:58.565Z" agent="Mozilla/5.0 (Windows NT 10.0; Win64; x64) AppleWebKit/537.36 (KHTML, like Gecko) Chrome/121.0.0.0 Safari/537.36 Edg/121.0.0.0" etag="VFCw5kSB5Wl9nIlAUEX_" version="23.1.1" type="device">
  <diagram name="Pagina-1" id="3skUZX-axddJTZ6Zc9Ia">
    <mxGraphModel dx="1806" dy="524" grid="1" gridSize="10" guides="1" tooltips="1" connect="1" arrows="1" fold="1" page="1" pageScale="1" pageWidth="850" pageHeight="1100" math="0" shadow="0">
      <root>
        <mxCell id="0" />
        <mxCell id="1" parent="0" />
        <mxCell id="Bgz-4x5CYYCoXNagu2RP-1" value="" style="edgeStyle=orthogonalEdgeStyle;rounded=0;orthogonalLoop=1;jettySize=auto;html=1;" edge="1" parent="1" source="Bgz-4x5CYYCoXNagu2RP-5" target="Bgz-4x5CYYCoXNagu2RP-8">
          <mxGeometry relative="1" as="geometry">
            <Array as="points">
              <mxPoint x="550" y="140" />
              <mxPoint x="550" y="140" />
            </Array>
          </mxGeometry>
        </mxCell>
        <mxCell id="Bgz-4x5CYYCoXNagu2RP-2" style="edgeStyle=orthogonalEdgeStyle;rounded=0;orthogonalLoop=1;jettySize=auto;html=1;" edge="1" parent="1" target="Bgz-4x5CYYCoXNagu2RP-7">
          <mxGeometry relative="1" as="geometry">
            <mxPoint x="550" y="120" as="sourcePoint" />
            <Array as="points">
              <mxPoint x="370" y="120" />
              <mxPoint x="180" y="120" />
            </Array>
          </mxGeometry>
        </mxCell>
        <mxCell id="Bgz-4x5CYYCoXNagu2RP-4" style="edgeStyle=orthogonalEdgeStyle;rounded=0;orthogonalLoop=1;jettySize=auto;html=1;exitX=0.5;exitY=1;exitDx=0;exitDy=0;entryX=0.5;entryY=0;entryDx=0;entryDy=0;" edge="1" parent="1" source="Bgz-4x5CYYCoXNagu2RP-5" target="Bgz-4x5CYYCoXNagu2RP-13">
          <mxGeometry relative="1" as="geometry">
            <Array as="points">
              <mxPoint x="550" y="120" />
              <mxPoint x="840" y="120" />
            </Array>
          </mxGeometry>
        </mxCell>
        <mxCell id="Bgz-4x5CYYCoXNagu2RP-5" value="Homepage" style="rounded=1;whiteSpace=wrap;html=1;" vertex="1" parent="1">
          <mxGeometry x="490" width="120" height="60" as="geometry" />
        </mxCell>
        <mxCell id="Bgz-4x5CYYCoXNagu2RP-6" style="edgeStyle=orthogonalEdgeStyle;rounded=0;orthogonalLoop=1;jettySize=auto;html=1;exitX=0.5;exitY=1;exitDx=0;exitDy=0;" edge="1" parent="1" source="Bgz-4x5CYYCoXNagu2RP-7" target="Bgz-4x5CYYCoXNagu2RP-11">
          <mxGeometry relative="1" as="geometry" />
        </mxCell>
        <mxCell id="Bgz-4x5CYYCoXNagu2RP-18" style="edgeStyle=orthogonalEdgeStyle;rounded=0;orthogonalLoop=1;jettySize=auto;html=1;exitX=0.5;exitY=1;exitDx=0;exitDy=0;" edge="1" parent="1" source="Bgz-4x5CYYCoXNagu2RP-7" target="Bgz-4x5CYYCoXNagu2RP-14">
          <mxGeometry relative="1" as="geometry" />
        </mxCell>
        <mxCell id="Bgz-4x5CYYCoXNagu2RP-21" style="edgeStyle=orthogonalEdgeStyle;rounded=0;orthogonalLoop=1;jettySize=auto;html=1;exitX=0.5;exitY=1;exitDx=0;exitDy=0;" edge="1" parent="1" source="Bgz-4x5CYYCoXNagu2RP-7" target="Bgz-4x5CYYCoXNagu2RP-17">
          <mxGeometry relative="1" as="geometry" />
        </mxCell>
        <mxCell id="Bgz-4x5CYYCoXNagu2RP-22" style="edgeStyle=orthogonalEdgeStyle;rounded=0;orthogonalLoop=1;jettySize=auto;html=1;exitX=0.5;exitY=1;exitDx=0;exitDy=0;" edge="1" parent="1" source="Bgz-4x5CYYCoXNagu2RP-7" target="Bgz-4x5CYYCoXNagu2RP-16">
          <mxGeometry relative="1" as="geometry" />
        </mxCell>
        <mxCell id="Bgz-4x5CYYCoXNagu2RP-7" value="Area riservata" style="rounded=1;whiteSpace=wrap;html=1;" vertex="1" parent="1">
          <mxGeometry x="120" y="140" width="120" height="60" as="geometry" />
        </mxCell>
        <mxCell id="Bgz-4x5CYYCoXNagu2RP-8" value="Area utente" style="rounded=1;whiteSpace=wrap;html=1;" vertex="1" parent="1">
          <mxGeometry x="490" y="140" width="120" height="60" as="geometry" />
        </mxCell>
        <mxCell id="Bgz-4x5CYYCoXNagu2RP-11" value="Registrazione caspula" style="rounded=1;whiteSpace=wrap;html=1;" vertex="1" parent="1">
          <mxGeometry x="-170" y="247.5" width="120" height="40" as="geometry" />
        </mxCell>
        <mxCell id="Bgz-4x5CYYCoXNagu2RP-13" value="Logout" style="rounded=1;whiteSpace=wrap;html=1;" vertex="1" parent="1">
          <mxGeometry x="780" y="140" width="120" height="60" as="geometry" />
        </mxCell>
        <mxCell id="Bgz-4x5CYYCoXNagu2RP-14" value="Visualizza capsule" style="rounded=1;whiteSpace=wrap;html=1;" vertex="1" parent="1">
          <mxGeometry x="-20" y="247.5" width="120" height="40" as="geometry" />
        </mxCell>
        <mxCell id="Bgz-4x5CYYCoXNagu2RP-15" value="Modifica disponibilità caspula" style="rounded=1;whiteSpace=wrap;html=1;" vertex="1" parent="1">
          <mxGeometry x="130" y="247.5" width="120" height="40" as="geometry" />
        </mxCell>
        <mxCell id="Bgz-4x5CYYCoXNagu2RP-16" value="Prolunga disponibilità capsula" style="rounded=1;whiteSpace=wrap;html=1;" vertex="1" parent="1">
          <mxGeometry x="440" y="248.75" width="120" height="37.5" as="geometry" />
        </mxCell>
        <mxCell id="Bgz-4x5CYYCoXNagu2RP-17" value="Modifica prezzo orario capsula" style="rounded=1;whiteSpace=wrap;html=1;" vertex="1" parent="1">
          <mxGeometry x="290" y="247.5" width="120" height="40" as="geometry" />
        </mxCell>
        <mxCell id="Bgz-4x5CYYCoXNagu2RP-20" style="edgeStyle=orthogonalEdgeStyle;rounded=0;orthogonalLoop=1;jettySize=auto;html=1;exitX=0.5;exitY=1;exitDx=0;exitDy=0;entryX=0.425;entryY=-0.009;entryDx=0;entryDy=0;entryPerimeter=0;" edge="1" parent="1" source="Bgz-4x5CYYCoXNagu2RP-7" target="Bgz-4x5CYYCoXNagu2RP-15">
          <mxGeometry relative="1" as="geometry" />
        </mxCell>
      </root>
    </mxGraphModel>
  </diagram>
</mxfile>
